# Blender v3.0.1 OBJ File: ''
# www.blender.org
mtllib room1.mtl
o Outer_Wall_Cube.002
v 10.000000 -5.000000 -9.999999
v 10.000000 -4.999999 10.000001
v 10.000000 5.000001 9.999999
v 10.000000 4.999999 -10.000001
v -10.000000 -4.999999 10.000001
v -10.000000 5.000001 9.999999
v -10.000000 -5.000001 -9.999999
v -10.000000 4.999999 -10.000001
v 10.300000 5.000002 10.299999
v 10.300000 4.999998 -10.300001
v -10.300000 5.000002 10.299999
v -10.300000 4.999998 -10.300001
v 10.300000 -4.999998 10.300001
v 10.300000 -5.000002 -10.299999
v -10.300000 -4.999998 10.300001
v -10.300000 -5.000002 -10.299999
vt 1.466610 -4.310550
vt -41.440399 -4.310220
vt -41.440399 5.310920
vt 1.466610 5.310580
vt 1.466615 -4.310550
vt -41.440376 -4.310219
vt -41.440376 5.310920
vt 1.466610 5.310583
vt 42.440895 -4.310970
vt -0.466134 -4.310540
vt -0.466134 5.310600
vt 42.440895 5.310177
vt -41.440182 5.310920
vt -41.440182 -4.310220
vt -41.440399 5.310920
vt 1.466610 5.310580
vt -0.466134 5.310600
vt 42.440895 5.310177
vt -41.440182 5.310920
vt -41.440376 5.310920
vt 1.466615 5.310583
vt 1.466610 5.310580
vt -41.469421 5.310580
vt -41.436680 -4.310550
vt 1.466610 -4.310550
vt 42.397678 5.310600
vt -0.466133 5.310600
vt -0.466133 -4.310970
vt 42.422421 -4.310970
vt 1.466610 5.310919
vt 1.466610 -4.310550
vt -41.440182 -4.310550
vt -41.440380 5.310580
vt -41.440376 -4.310550
vt 1.466610 -4.310550
vt 2.574741 -1.575487
vt -1.574741 -1.575487
vt -1.574741 2.573996
vt 2.574741 2.575961
vn -1.0000 0.0000 0.0000
vn -0.3015 0.9045 -0.3015
vn -0.3015 0.9045 0.3015
vn 0.0000 -0.0000 -1.0000
vn 0.3015 0.9045 -0.3015
vn 1.0000 0.0000 0.0000
vn 0.3015 0.9045 0.3015
vn 0.0000 0.0000 1.0000
vn 0.5774 0.5774 0.5773
vn 0.5774 0.5774 -0.5774
vn -0.5774 0.5774 -0.5774
vn -0.5774 0.5774 0.5773
vn -0.7071 -0.0000 -0.7071
vn -0.7071 0.0000 0.7071
vn 0.7071 0.0000 0.7071
vn 0.7071 -0.0000 -0.7071
vn -0.0000 1.0000 -0.0000
usemtl Wallpaper
s 1
f 1/1/1 2/2/1 3/3/2 4/4/3
f 2/5/4 5/6/4 6/7/5 3/8/2
f 5/9/6 7/10/6 8/11/7 6/12/5
f 8/13/7 7/14/8 1/1/8 4/4/3
f 4/4/3 3/3/2 9/15/9 10/16/10
f 6/12/5 8/11/7 12/17/11 11/18/12
f 8/13/7 4/4/3 10/16/10 12/19/11
f 3/8/2 6/7/5 11/20/12 9/21/9
f 11/22/12 12/23/11 16/24/13 15/25/14
f 10/26/10 9/27/9 13/28/15 14/29/16
f 12/19/11 10/30/10 14/31/16 16/32/13
f 9/21/9 11/33/12 15/34/14 13/35/15
usemtl Floor
f 2/36/17 1/37/17 7/38/17 5/39/17
